<?xml version="1.0" encoding="utf-8"?>
<!-- Generator: Adobe Illustrator 24.0.0, SVG Export Plug-In . SVG Version: 6.00 Build 0)  -->
<svg version="1.1" id="Layer_1" xmlns="http://www.w3.org/2000/svg" xmlns:xlink="http://www.w3.org/1999/xlink" x="0px" y="0px"
	 viewBox="0 0 1024 1024" style="enable-background:new 0 0 1024 1024;" xml:space="preserve">
<style type="text/css">
	.st0{fill:#49047A;}
	.st1{fill:#320651;}
	.st2{fill:#FFFFFF;}
</style>
<g>
	<g>
		<g>
			<path class="st0" d="M761.35,124.22l-76.7,139l-1.22,0.03c-24.18-15.22-56.5-60.02-81.79-65.09
				c-26.8-5.39-78.13,27.29-105.45,29.02c-27.29,1.73-82.33-24.18-108.24-15.43c-18.22,6.15-37.52,34.63-55.26,56.26h-0.08
				l-69.96-147.42c10.88,0.95,20.74,6.53,28.92,13.54c3.09,2.68,5.85,5.58,8.5,8.66c2.46-7.39,9.37-12.67,17.54-12.67
				c9.96,0.03,18.49,8.42,18.57,18.38c0.08,10.45-8.42,18.82-18.74,18.73c-0.38,0,3.3,7.8,6.2,12.4c9.58,15,20.66,24.64,36.52,24.77
				c21.23,0.13,38.61-16.92,38.74-38.15c0.05-6.25-1.08-16.19-5.55-25.15c-1.9-3.79-5.44-6.44-9.42-7.88
				c-8.39-2.95-14.35-10.91-14.27-20.33c0.08-13.21,12.16-23.55,25.91-20.85c8.2,1.68,14.86,8.28,16.57,16.62
				c1.03,5.2,0.13,10.18-2.08,14.35c-1.92,3.76-2.71,8.1-1.65,12.18c5.85,23.31,23.85,41.37,44.59,41.18
				c36.9-0.24,48.22-28.94,49.44-52.79c-5.25,2.44-11.48,3.25-17.95,1.73c-10.99-2.54-19.55-12.02-21.01-23.18
				c-2.17-16.32,9.94-30.3,25.48-31.38c-0.08-1.79-0.14-3.55-0.11-5.25c0.16-20.93,9.37-39.61,23.93-52.52
				c14.38,13.1,23.36,31.95,23.2,52.85c0,1.73-0.11,3.49-0.24,5.25c15.54,1.33,27.37,15.49,25.04,31.7
				c-1.65,11.18-10.34,20.55-21.33,22.93c-6.52,1.41-12.72,0.51-17.95-2c0.95,23.85,11.78,52.74,48.68,53.5
				c20.66,0.51,38.93-17.25,45.16-40.37c1.08-3.9,0.76-8.2-1.16-11.8c-2.41-4.3-3.3-9.5-2.11-14.92
				c1.76-8.31,8.53-14.84,16.76-16.38c13.78-2.52,25.64,8.01,25.56,21.2c-0.08,9.45-6.09,17.33-14.51,20.12
				c-4.01,1.41-7.61,3.98-9.58,7.77c-4.6,8.88-5.85,18.79-5.9,25.04c-0.14,21.23,16.98,38.55,38.15,38.72
				c16,0.11,27.15-9.4,36.93-24.23c2.98-4.58,6.71-12.32,6.36-12.32c-10.34-0.08-18.6-8.56-18.44-19.01
				c0.3-9.96,8.85-18.22,18.84-18.11c8.18,0.11,15.05,5.52,17.41,12.94c2.6-3.06,5.44-5.9,8.64-8.56
				C740.48,130.42,750.41,125.01,761.35,124.22z"/>
		</g>
	</g>
	<path class="st0" d="M839.12,780.09c-11.74,23.71-9.19,82.54-26.7,102.39c-17.46,19.88-76.15,24.79-98.16,39.45
		c-22.05,14.65-49.23,66.88-74.34,75.33c-25.02,8.46-78.33-16.63-104.74-14.93c-26.41,1.67-76.06,33.29-102.01,28.08
		c-25.93-5.22-59.54-53.57-83.27-65.34c-23.71-11.73-82.54-9.19-102.38-26.67c-19.87-17.48-24.78-76.15-39.43-98.19
		c-14.67-22.03-66.88-49.24-75.35-74.31c-8.46-25.07,16.63-78.36,14.95-104.75c-1.7-26.41-33.34-76.08-28.11-102.03
		c5.23-25.94,53.59-59.55,65.35-83.26c11.73-23.71,9.17-82.54,26.67-102.39c17.48-19.87,76.14-24.78,98.16-39.44
		c22.04-14.65,49.24-66.89,74.32-75.33c25.07-8.46,78.34,16.61,104.75,14.93c26.42-1.68,76.09-33.3,102.03-28.08
		c25.94,5.18,59.54,53.57,83.27,65.31c23.7,11.74,82.55,9.19,102.37,26.69c19.87,17.5,24.79,76.17,39.44,98.2
		c14.66,22.03,66.89,49.23,75.35,74.3c8.45,25.06-16.63,78.36-14.95,104.76c1.7,26.41,33.3,76.08,28.08,102.03
		C899.22,722.78,850.84,756.39,839.12,780.09z"/>
	<circle class="st1" cx="512" cy="613.54" r="294.44"/>
	<g>
		<path class="st2" d="M512,891.87c-153.48,0-278.34-124.86-278.34-278.34c0-153.48,124.86-278.34,278.34-278.34
			s278.34,124.86,278.34,278.34C790.34,767.01,665.48,891.87,512,891.87z M512,340.68c-150.45,0-272.85,122.4-272.85,272.85
			S361.55,886.39,512,886.39s272.85-122.4,272.85-272.86S662.45,340.68,512,340.68z"/>
	</g>
	<path class="st2" d="M512,617.99"/>
	<path class="st2" d="M512,617.99"/>
	<path class="st2" d="M512,617.99"/>
	<path class="st2" d="M512,617.99"/>
	<path class="st2" d="M512,617.99"/>
	<path class="st2" d="M512,617.99"/>
	<path class="st2" d="M512,617.99"/>
	<path class="st2" d="M512,617.99"/>
	<path class="st2" d="M512,617.99"/>
	<path class="st2" d="M512,617.99"/>
	<path class="st2" d="M512,617.99"/>
	<path class="st2" d="M512,617.99"/>
	<path class="st2" d="M512,617.99"/>
	<path class="st2" d="M512,617.99"/>
	<path class="st2" d="M512,617.99"/>
	<path class="st2" d="M512,617.99"/>
	<path class="st2" d="M512,617.99"/>
	<path class="st2" d="M512,617.99"/>
	<path class="st2" d="M512,617.99"/>
	<path class="st2" d="M512,617.99"/>
	<path class="st2" d="M512,617.99"/>
	<path class="st2" d="M512,617.99"/>
	<path class="st2" d="M512,617.99"/>
	<path class="st2" d="M512,617.99"/>
	<path class="st2" d="M512,617.99"/>
	<path class="st2" d="M512,617.99"/>
	<path class="st2" d="M512,617.99"/>
	<path class="st2" d="M512,617.99"/>
	<path class="st2" d="M512,617.99"/>
	<path class="st2" d="M512,617.99"/>
	<path class="st2" d="M710.49,689.45c0,34.95-32.43,53.13-60.06,53.13c-26.07,0-37.8-12.78-37.8-24.43c0-8.8,7.92-13.62,10.17-13.62
		c0.93,0,1.26,0.55,1.26,1.43c0,1.7-2.55,5.1-2.55,13.35c0,8.22,8.91,18.45,23.19,18.45c25.74,0,39.42-21.58,39.42-54.83
		c0-18.48-13.68-27-13.68-27s-9.21,2.85-15.57,2.85c-4.44,0-9.54-1.12-9.54-5.1c0-3.43,2.88-5.7,10.5-5.7
		c5.1,0,13.35,2.28,15.57,3.43c0,0,17.79-13.38,17.79-41.51c0-14.75-8.58-27.55-25.41-35.23c-33.99,32.98-39.09,106.26-66.1,146.61
		c-15.9,23.88-38.76,34.1-60.7,34.1c-25.74,0-32.73-11.65-32.73-16.48c0-2.58,1.59-4.28,4.11-4.28c2.55,0,3.84,1.7,3.84,3.43
		c0,3.13,3.81,11.65,17.79,11.65c18.42,0,30.51-12.8,42.9-36.1c20.31-38.05,40.98-113.93,80.38-142.61c-8.88-2.58-19.05-4-30.48-4
		c-51.59,0-108.29,32.24-113.96,73.17c12.39,29.09,22.21,37.2,41.09,37.2c6.69,0,8.66-1.45,11.54-2.88
		c5.76-4.22,8.88-10.14,8.88-15.71c0-7.37-5.4-7.95-5.4-13.62c0-4.28,3.48-7.4,7.62-7.4c5.73,0,9.54,3.13,9.54,9.95
		c0,13.32-8.53,25.74-21.49,32.32c-4.91,3.04-12.53,6.22-24.54,6.47c-11.51,0.25-23.74-3.59-34.49-13.71
		c-0.08-0.08-0.19-0.16-0.27-0.25c-0.63-0.63-1.26-1.26-1.89-1.89c-0.44-0.41-0.82-0.85-1.18-1.29
		c-10.42-11.46-19.14-29.47-23.96-56.2c-4.3-24.01-16.5-34.65-24.15-38.93l-6.33,2.28c-6.36,20.45-13.98,43.75-24.15,59.38
		c-15.9,23.88-40.05,34.1-61.98,34.1c-25.74,0-32.73-11.65-32.73-16.48c0-2.55,1.92-4.28,4.14-4.28c2.55,0,3.81,1.73,3.81,3.43
		c0,3.13,4.14,11.65,17.79,11.65c18.42,0,30.51-12.8,42.9-36.08c20.34-38.08,38.76-115.94,77.86-144.64c0,0-19.05-3.4-30.81-3.4
		c-58.17,0-112.51,27.55-112.51,81.26c0,19.6,9.54,33.53,33.36,33.53c18.12,0,28.62-11.38,28.62-21.6c0-7.37-5.4-7.95-5.4-13.62
		c0-4.55,2.85-7.4,8.25-7.4c5.07,0,8.88,3.13,8.88,9.95c0,21.03-18.42,37.23-42.25,37.23c-26.07,0-49.89-12.8-49.89-39.78
		c0-56.56,66.43-84.11,124.24-84.11c22.56,0,31.14,2.28,40.35,2.28c7.65,0,15.27-1.43,21.93-4.28l1.29,2.28
		c0,0-8.28,6.25-14.94,14.5c-16.2,20.75-26.37,48.88-36.54,79.83c44.16-20.18,64.51-44.6,85.78-69.33
		c13.98-16.17,29.58-27.28,43.56-27.28c9.84,0,14.61,3.43,14.61,9.38c0,4.85-5.1,8.53-9.54,8.53c-6.99,0-6.66-5.67-14.61-5.67
		c-10.17,0-20.97,9.95-29.55,19.33c-22.89,25-45.45,49.73-74.38,62.5c8.58,1.7,25.11,13.08,34.95,40.9
		c0.82,2.39,1.64,4.69,2.47,6.91c21.68-32.6,77.01-52.2,123.15-52.2c13.65,0,26.37,1.12,37.8,3.13c8.91-4.82,17.49-7.68,25.74-7.68
		c9.21,0,17.79,2.55,17.79,5.1c0,2.85-2.52,4.55-4.77,4.55c-3.48,0-4.11-5.95-13.02-5.95c-5.7,0-10.8,2.55-15.87,6.25
		c27.63,7.1,44.16,21.3,44.16,40.33c0,32.68-32.1,43.21-35.91,44.05C681.57,654.22,710.49,663.6,710.49,689.45z"/>
</g>
</svg>
